<?xml version="1.0" standalone="no"?>
<!DOCTYPE svg PUBLIC "-//W3C//DTD SVG 20010904//EN"
 "http://www.w3.org/TR/2001/REC-SVG-20010904/DTD/svg10.dtd">
<svg version="1.0" xmlns="http://www.w3.org/2000/svg"
 width="728.000000pt" height="728.000000pt" viewBox="0 0 728.000000 728.000000"
 preserveAspectRatio="xMidYMid meet">
<metadata>
Created by potrace 1.11, written by Peter Selinger 2001-2013
</metadata>
<g transform="translate(0.000000,728.000000) scale(0.100000,-0.100000)"
fill="#000000" stroke="none">
<path d="M3992 6739 c-12 -5 -22 -13 -22 -19 0 -5 -10 -10 -21 -10 -12 0 -28
-8 -36 -17 -11 -13 -16 -15 -20 -5 -3 9 -13 5 -35 -13 -16 -14 -35 -25 -43
-25 -7 0 -18 -6 -24 -14 -10 -11 -8 -17 6 -25 15 -10 13 -11 -14 -9 -36 3 -83
-33 -83 -64 0 -10 -7 -18 -15 -18 -19 0 -55 -39 -55 -61 0 -9 -9 -19 -20 -22
-12 -3 -20 -14 -20 -27 0 -12 -11 -31 -25 -42 -14 -11 -32 -33 -41 -50 -13
-25 -14 -32 -2 -39 10 -7 8 -10 -8 -15 -23 -6 -44 -42 -44 -74 0 -11 -4 -20
-10 -20 -5 0 -10 -9 -10 -21 0 -11 -7 -27 -15 -35 -8 -8 -17 -31 -20 -52 -4
-20 -13 -51 -21 -68 -17 -40 -37 -156 -36 -212 1 -25 -3 -40 -8 -37 -17 11
-16 -284 0 -315 6 -10 10 -29 10 -42 0 -18 -2 -20 -10 -8 -5 8 -10 10 -10 4 0
-6 7 -17 15 -24 9 -8 15 -30 15 -60 0 -25 3 -50 8 -54 4 -4 8 -34 8 -66 1 -32
8 -80 17 -107 9 -26 21 -69 28 -96 6 -26 16 -50 21 -53 7 -5 38 -69 38 -81 0
-2 -5 -1 -11 3 -7 4 -10 -5 -7 -27 3 -31 0 -34 -23 -34 -23 -1 -139 -81 -139
-96 0 -4 -11 -10 -25 -13 -15 -4 -27 -16 -31 -32 -4 -15 -12 -23 -20 -20 -16
6 -166 -102 -161 -117 2 -6 -16 -20 -39 -32 -59 -30 -172 -117 -179 -137 -4
-10 -12 -18 -19 -18 -21 0 -143 -118 -150 -145 -4 -14 -11 -22 -19 -19 -15 5
-97 -73 -97 -92 0 -6 -7 -15 -16 -18 -8 -3 -12 -10 -9 -16 3 -5 0 -10 -9 -10
-19 0 -106 -100 -106 -122 0 -10 -6 -18 -14 -18 -16 0 -57 -58 -86 -125 -13
-27 -27 -53 -33 -56 -5 -4 -11 -19 -12 -34 -2 -15 -13 -37 -24 -49 -11 -12
-22 -31 -24 -41 -2 -11 -9 -31 -14 -45 -7 -15 -7 -29 -2 -35 12 -13 12 -68 -1
-60 -5 3 -10 16 -10 28 -1 20 -1 21 -11 4 -6 -11 -9 -31 -6 -45 3 -15 1 -34
-4 -44 -19 -35 -10 -320 11 -333 4 -2 5 -16 2 -30 -2 -15 0 -25 7 -25 7 0 11
-6 10 -12 -3 -18 22 -68 34 -68 6 0 5 -5 -1 -13 -12 -14 34 -135 63 -167 8 -9
15 -23 15 -32 0 -8 15 -31 33 -52 24 -27 44 -39 77 -45 40 -8 41 -9 13 -10
-18 -1 -33 -6 -33 -12 0 -22 153 -185 230 -244 99 -77 155 -115 171 -115 9 0
20 -7 23 -16 4 -10 14 -14 25 -11 11 3 22 -1 25 -9 6 -15 97 -64 120 -64 8 0
17 6 19 13 3 6 6 2 6 -10 1 -14 11 -25 29 -31 15 -5 36 -13 46 -18 14 -5 17
-4 12 4 -12 20 12 13 33 -9 10 -11 27 -20 37 -19 11 1 28 2 39 1 16 -1 17 -3
6 -10 -14 -9 -1 -13 79 -24 14 -2 32 -6 40 -9 38 -13 127 -30 230 -43 56 -7
294 -7 375 0 124 11 149 16 134 26 -10 7 0 8 30 5 34 -5 41 -3 33 7 -8 9 0 12
34 13 31 1 44 -3 44 -13 0 -7 8 -21 18 -30 9 -10 17 -31 18 -48 1 -31 39 -166
55 -197 5 -10 9 -28 9 -41 0 -13 7 -32 15 -43 8 -10 15 -34 15 -52 0 -18 7
-43 15 -56 9 -13 15 -28 14 -32 -5 -26 3 -54 14 -51 7 1 11 -6 9 -17 -2 -10 0
-30 4 -45 l7 -26 13 30 c10 23 13 25 13 10 1 -11 -6 -32 -13 -47 -9 -18 -11
-30 -5 -34 6 -3 10 -20 9 -38 -1 -17 -2 -42 -1 -56 1 -20 3 -22 11 -10 13 20
14 -44 1 -69 -16 -30 -19 -75 -5 -96 8 -13 10 -25 4 -35 -7 -12 -10 -12 -16 4
-5 14 -12 6 -29 -37 -24 -58 -72 -134 -99 -156 -9 -8 -16 -22 -16 -32 0 -11
-7 -19 -15 -19 -8 0 -38 -14 -67 -31 -58 -35 -177 -87 -221 -97 -15 -4 -28
-12 -27 -17 1 -25 -352 -25 -467 -1 -78 17 -169 69 -198 113 -16 23 -15 26 9
48 14 13 28 19 31 14 4 -5 3 -9 -2 -9 -12 0 20 -20 32 -20 6 0 4 4 -4 9 -21
13 12 20 89 20 38 0 66 4 68 10 2 6 14 11 26 11 38 0 125 50 132 75 4 16 11
21 25 18 12 -4 19 0 19 10 0 8 13 29 29 46 31 34 46 71 28 71 -8 0 -8 3 1 9 7
4 14 16 14 27 2 33 -12 94 -22 94 -6 0 -10 12 -10 28 0 15 -8 39 -17 52 -20
29 -64 69 -76 70 -5 0 -19 13 -32 29 -14 15 -39 34 -57 41 -18 7 -47 19 -65
26 -36 16 -55 18 -33 4 12 -8 12 -10 -5 -10 -21 0 -57 19 -40 21 6 1 -3 5 -20
8 -16 4 -35 4 -40 0 -13 -10 -116 -21 -178 -20 -34 1 -49 -3 -53 -14 -4 -8
-16 -15 -28 -15 -13 0 -27 -11 -37 -29 -14 -23 -22 -28 -44 -24 -22 5 -35 -3
-78 -48 -52 -54 -59 -66 -91 -144 -17 -42 -21 -101 -11 -150 5 -24 4 -27 -5
-15 -10 13 -11 12 -6 -3 3 -10 6 -23 6 -28 0 -6 12 -22 28 -36 17 -17 23 -27
15 -30 -10 -4 -10 -11 1 -31 16 -31 83 -102 96 -102 5 0 11 -8 14 -17 8 -25
67 -63 98 -63 15 0 47 -16 74 -36 58 -44 139 -81 197 -90 23 -4 47 -11 53 -16
27 -20 375 -32 401 -12 13 9 22 9 36 0 15 -8 21 -8 24 2 3 6 23 13 46 14 37 1
38 2 10 5 -18 2 -33 9 -33 15 0 5 7 7 16 4 8 -3 12 -2 9 4 -3 6 3 10 14 10 11
0 23 -5 27 -11 13 -22 184 18 184 43 0 5 6 8 13 6 15 -3 77 24 77 34 0 5 10 8
23 8 33 0 62 23 54 44 -6 14 -3 16 13 11 14 -5 20 -2 20 9 0 9 8 16 18 16 21
0 126 103 115 114 -4 4 -3 10 3 14 29 20 55 76 59 124 5 74 5 75 15 53 6 -14
8 -2 9 40 0 33 1 75 1 93 1 19 -3 39 -9 45 -5 7 -9 43 -9 82 1 45 -3 70 -10
73 -7 2 -12 18 -12 35 -1 35 -20 115 -33 135 -5 6 -6 16 -3 20 3 5 -4 18 -14
30 -21 22 -28 58 -10 47 7 -4 7 1 0 17 -5 13 -18 57 -29 98 -10 42 -26 93 -35
114 -9 21 -16 52 -16 68 0 16 -7 45 -15 64 -16 40 -13 54 13 54 14 0 15 2 2
10 -12 7 -11 10 5 16 11 5 20 3 23 -4 2 -6 10 -8 18 -5 7 3 11 9 8 14 -3 5 7
9 21 9 32 0 104 36 112 55 3 8 12 15 20 15 8 0 11 -5 8 -10 -7 -11 79 35 116
63 24 17 24 18 2 12 -13 -4 -23 -3 -23 2 0 14 38 33 53 27 8 -3 17 2 20 10 4
9 18 16 32 16 19 0 25 5 25 21 0 14 5 19 19 17 23 -4 81 45 81 68 0 10 6 14
15 10 10 -3 15 1 15 12 1 9 18 35 40 56 21 22 52 65 69 95 32 60 31 58 31 96
0 15 5 24 12 22 8 -1 12 8 10 25 -2 15 5 39 15 54 13 20 14 29 5 32 -15 5 -16
42 -1 42 14 0 9 134 -8 193 -7 26 -17 47 -22 47 -4 0 -6 11 -4 24 7 34 -42
140 -61 133 -8 -3 -17 1 -20 9 -9 24 -7 36 5 28 7 -4 3 8 -7 26 -25 44 -123
150 -138 150 -7 0 -19 11 -26 25 -7 14 -17 25 -21 25 -4 0 -22 13 -39 29 -30
27 -125 81 -144 81 -4 0 -19 9 -32 19 -13 11 -48 22 -77 26 -72 9 -87 14 -87
30 0 31 -176 54 -450 58 l-114 2 -21 71 c-11 39 -28 79 -38 89 -13 12 -15 20
-7 25 15 9 -54 270 -71 270 -5 0 -9 10 -9 23 1 43 -5 68 -19 76 -7 5 -10 14
-7 20 4 6 2 11 -3 11 -23 0 -9 19 32 43 52 31 109 86 101 98 -3 5 8 12 24 15
48 10 302 269 288 293 -4 5 -1 13 5 17 8 4 4 11 -12 20 -23 13 -23 13 12 14
39 0 54 12 60 45 2 11 14 25 27 30 13 6 25 20 28 32 3 12 12 24 20 27 8 3 14
17 14 30 0 14 8 31 18 38 9 7 26 31 37 53 11 22 24 43 28 46 5 4 4 9 -1 13
-12 7 -7 51 10 84 8 16 14 19 19 10 4 -7 3 -18 -2 -25 -6 -6 -9 -20 -7 -30 2
-9 18 25 35 76 18 51 30 97 27 102 -3 6 -1 15 4 22 23 30 32 94 39 285 3 90 1
132 -6 132 -6 0 -11 7 -11 15 0 8 4 15 9 15 10 0 -5 84 -21 117 -6 11 -8 25
-5 30 3 5 -2 23 -12 39 -10 16 -20 46 -24 67 -9 55 -38 128 -48 121 -5 -3 -9
6 -9 19 0 34 -58 145 -82 158 -14 8 -17 13 -9 19 9 5 6 17 -10 46 -30 52 -52
80 -64 83 -5 1 -9 11 -7 21 2 15 -3 20 -18 20 -12 0 -19 4 -16 9 8 12 -46 77
-97 117 -52 40 -93 55 -125 43z m203 -540 c57 -15 128 -76 150 -131 22 -56 23
-182 1 -268 -23 -88 -79 -223 -123 -295 -83 -136 -282 -342 -459 -477 -123
-93 -138 -103 -156 -96 -39 15 -95 337 -84 488 13 171 80 385 163 518 62 99
187 205 291 248 64 26 145 31 217 13z m-556 -1981 c21 -68 133 -500 129 -503
-1 -1 -47 -21 -101 -43 -160 -67 -250 -126 -362 -237 -55 -55 -107 -113 -115
-130 -8 -16 -18 -32 -21 -35 -32 -26 -69 -166 -69 -262 0 -241 182 -466 482
-596 89 -38 185 -53 198 -31 13 20 -12 43 -82 74 -82 37 -166 87 -203 122 -17
15 -46 40 -64 56 -18 15 -30 27 -27 27 4 0 -1 16 -9 36 -8 20 -18 68 -21 105
-6 57 -3 79 16 131 27 74 56 121 99 163 17 17 31 35 31 41 0 11 112 80 195
122 63 31 154 57 164 46 11 -11 54 -152 81 -264 12 -47 32 -125 46 -175 52
-191 174 -633 190 -688 9 -31 14 -60 11 -63 -12 -13 -172 -34 -302 -40 -316
-15 -623 44 -869 167 -258 129 -399 274 -485 497 -23 61 -25 81 -25 217 -1
162 7 202 65 339 60 142 128 237 285 398 57 59 104 114 104 123 0 8 8 15 18
15 22 1 112 66 112 83 0 7 13 17 29 23 29 11 42 20 218 148 55 41 114 82 130
90 41 23 67 40 73 47 9 10 45 28 57 29 6 0 16 -15 22 -32z m587 -903 c191 -33
311 -90 454 -216 51 -45 74 -74 107 -140 71 -141 81 -242 38 -376 -39 -124
-114 -222 -245 -319 -66 -50 -205 -122 -215 -112 -3 2 -41 134 -85 292 -44
158 -82 291 -85 295 -2 5 -20 68 -39 142 -55 213 -85 320 -105 374 -10 28 -16
56 -14 63 6 17 80 15 189 -3z"/>
<path d="M3167 629 c7 -7 15 -10 18 -7 3 3 -2 9 -12 12 -14 6 -15 5 -6 -5z"/>
</g>
</svg>
